<svg xmlns="http://www.w3.org/2000/svg" viewBox="0 0 800 620">
  <defs><linearGradient id="g" x1="0" x2="1"><stop stop-color="#edf3f4"/><stop offset="1" stop-color="#d4e1e3"/></linearGradient></defs>
  <rect width="800" height="620" rx="48" fill="url(#g)"/>
  <ellipse cx="400" cy="485" rx="270" ry="65" fill="#3a2418" opacity=".11"/>
  <path d="M170 410c48-150 145-220 230-220s182 70 230 220c-95 78-365 78-460 0Z" fill="#fff" stroke="#cad7da" stroke-width="10"/>
  <g fill="#edf5f7" stroke="#bfd0d4" stroke-width="4">
    <rect x="260" y="310" width="58" height="58" rx="8" transform="rotate(12 289 339)"/><rect x="335" y="270" width="65" height="65" rx="8" transform="rotate(-9 367 302)"/><rect x="420" y="305" width="60" height="60" rx="8" transform="rotate(16 450 335)"/><rect x="500" y="345" width="55" height="55" rx="8" transform="rotate(-12 528 372)"/><rect x="305" y="390" width="54" height="54" rx="8"/><rect x="390" y="385" width="58" height="58" rx="8"/><rect x="465" y="400" width="50" height="50" rx="8"/>
  </g>
</svg>
