<svg width="640" height="520" viewBox="0 0 640 520" xmlns="http://www.w3.org/2000/svg">
  <defs><linearGradient id="bg" x1="0" y1="0" x2="640" y2="520"><stop stop-color="#EEF0DE"/><stop offset="1" stop-color="#9DAE83"/></linearGradient></defs>
  <rect width="640" height="520" fill="url(#bg)"/>
  <ellipse cx="320" cy="401" rx="232" ry="61" fill="#3F5434" opacity=".22"/>
  <path d="M150 365C201 284 236 202 322 146C402 203 446 282 497 365H150Z" fill="#FFFDF8"/>
  <g fill="#DCE6CA"><circle cx="230" cy="315" r="11"/><circle cx="281" cy="257" r="9"/><circle cx="340" cy="230" r="12"/><circle cx="401" cy="295" r="10"/><circle cx="360" cy="342" r="8"/></g>
  <path d="M460 110C500 76 551 82 574 124C529 148 490 141 460 110Z" fill="#667A4F"/>
  <path d="M463 118C504 109 539 115 565 128" stroke="#3F5434" stroke-width="5" stroke-linecap="round"/>
</svg>
